<?xml version="1.0" encoding="UTF-8"?>
<!DOCTYPE svg PUBLIC "-//W3C//DTD SVG 1.1//EN" "http://www.w3.org/Graphics/SVG/1.1/DTD/svg11.dtd">
<svg xmlns="http://www.w3.org/2000/svg" version="1.1" width="520px" height="480px" style="shape-rendering:geometricPrecision; text-rendering:geometricPrecision; image-rendering:optimizeQuality; fill-rule:evenodd; clip-rule:evenodd" xmlns:xlink="http://www.w3.org/1999/xlink">
<g><path style="opacity:1" fill="#864540" d="M 191.5,46.5 C 190.143,45.3146 188.643,44.3146 187,43.5C 185.862,43.9891 184.695,44.3225 183.5,44.5C 187.284,40.1122 189.95,40.7789 191.5,46.5 Z"/></g>
<g><path style="opacity:1" fill="#fb0101" d="M 201.5,63.5 C 203.124,70.7489 206.791,76.7489 212.5,81.5C 212.372,83.6547 212.872,85.6547 214,87.5C 217.137,93.4826 220.97,98.816 225.5,103.5C 225.977,107.794 227.977,111.127 231.5,113.5C 231.977,117.794 233.977,121.127 237.5,123.5C 239,127.173 241,130.506 243.5,133.5C 243.343,134.873 243.51,136.207 244,137.5C 246.442,140.048 248.108,143.048 249,146.5C 252.699,152.59 256.866,158.257 261.5,163.5C 261.983,167.808 263.983,171.141 267.5,173.5C 267.182,176.481 268.182,178.815 270.5,180.5C 271.522,184.206 273.356,187.539 276,190.5C 276.576,192.377 276.409,194.211 275.5,196C 277.346,196.419 279.346,197.253 281.5,198.5C 282.167,198.833 282.833,199.167 283.5,199.5C 284.505,203.523 286.505,206.856 289.5,209.5C 290.498,213.505 292.498,216.839 295.5,219.5C 296.383,222.704 298.05,225.371 300.5,227.5C 301.338,227.842 301.672,228.508 301.5,229.5C 301.88,232.745 303.047,235.745 305,238.5C 305.671,239.252 306.504,239.586 307.5,239.5C 307.983,243.808 309.983,247.141 313.5,249.5C 313.427,251.027 314.094,252.027 315.5,252.5C 316.743,260.669 320.743,267.002 327.5,271.5C 327.025,274.313 328.025,276.313 330.5,277.5C 330.427,279.027 331.094,280.027 332.5,280.5C 332.343,281.873 332.51,283.207 333,284.5C 341.584,298 349.918,311.667 358,325.5C 359.673,327.789 361.507,329.789 363.5,331.5C 363.343,332.873 363.51,334.207 364,335.5C 366.917,339.666 369.584,343.999 372,348.5C 373.673,350.789 375.507,352.789 377.5,354.5C 377.343,355.873 377.51,357.207 378,358.5C 384.581,368.75 390.748,379.25 396.5,390C 393.664,392.007 390.998,394.173 388.5,396.5C 386.326,396.75 384.659,397.75 383.5,399.5C 381.326,399.75 379.659,400.75 378.5,402.5C 374.643,403.704 371.31,405.704 368.5,408.5C 365.243,409.462 362.243,410.962 359.5,413C 358.056,413.781 356.723,413.614 355.5,412.5C 345.835,396.194 335.835,380.194 325.5,364.5C 321.852,357.845 318.185,351.178 314.5,344.5C 311.656,340.303 309.989,335.637 309.5,330.5C 306.939,329.615 304.606,328.282 302.5,326.5C 302.408,324.152 301.408,322.486 299.5,321.5C 299.005,317.163 297.005,313.829 293.5,311.5C 293.419,308.487 292.086,306.487 289.5,305.5C 288.719,299.671 286.053,295.004 281.5,291.5C 280.781,289.236 280.448,286.903 280.5,284.5C 278.115,283.708 276.115,282.374 274.5,280.5C 273.662,280.158 273.328,279.492 273.5,278.5C 272.137,274.769 270.47,271.102 268.5,267.5C 268.608,266.558 268.941,265.725 269.5,265C 267.468,264.834 265.635,263.667 264,261.5C 262.484,257.972 260.317,254.972 257.5,252.5C 256.336,249.186 255.17,245.852 254,242.5C 253.092,240.561 251.592,239.561 249.5,239.5C 248.521,235.539 246.521,232.206 243.5,229.5C 242.325,225.817 240.659,222.484 238.5,219.5C 237.291,217.182 235.957,214.849 234.5,212.5C 234.649,211.448 234.483,210.448 234,209.5C 232.073,207.105 230.24,204.772 228.5,202.5C 227.728,201.306 226.728,200.306 225.5,199.5C 224.502,195.495 222.502,192.161 219.5,189.5C 219.13,186.733 217.796,184.733 215.5,183.5C 215.316,180.663 213.982,178.663 211.5,177.5C 211.5,177.167 211.5,176.833 211.5,176.5C 211.002,173.674 209.669,171.34 207.5,169.5C 207.13,166.733 205.796,164.733 203.5,163.5C 202.326,162.486 201.66,161.153 201.5,159.5C 199.28,153.32 195.947,147.986 191.5,143.5C 190.521,139.539 188.521,136.206 185.5,133.5C 185.13,130.733 183.796,128.733 181.5,127.5C 181.657,126.127 181.49,124.793 181,123.5C 170.276,105.731 159.276,88.0644 148,70.5C 147.219,69.0563 147.386,67.723 148.5,66.5C 150.534,65.4412 152.534,64.4412 154.5,63.5C 161.379,58.7836 168.379,54.2836 175.5,50C 178.845,48.0031 182.512,46.5031 186.5,45.5C 188.383,45.8757 189.883,46.8757 191,48.5C 193.106,51.608 194.772,54.9413 196,58.5C 197.75,60.424 199.583,62.0907 201.5,63.5 Z"/></g>
<g><path style="opacity:1" fill="#a22c22" d="M 191.5,46.5 C 195.082,51.9942 198.415,57.6608 201.5,63.5C 199.583,62.0907 197.75,60.424 196,58.5C 194.772,54.9413 193.106,51.608 191,48.5C 189.883,46.8757 188.383,45.8757 186.5,45.5C 182.512,46.5031 178.845,48.0031 175.5,50C 168.379,54.2836 161.379,58.7836 154.5,63.5C 154.833,62.8333 155.167,62.1667 155.5,61.5C 164.302,55.0468 173.635,49.3801 183.5,44.5C 184.695,44.3225 185.862,43.9891 187,43.5C 188.643,44.3146 190.143,45.3146 191.5,46.5 Z"/></g>
<g><path style="opacity:0.78" fill="#884239" d="M 385.5,63.5 C 383.906,63.0805 382.406,62.4138 381,61.5C 379.019,62.6502 377.186,63.9835 375.5,65.5C 377.916,58.6777 381.25,58.011 385.5,63.5 Z"/></g>
<g><path style="opacity:1" fill="#fa0101" d="M 385.5,63.5 C 387.167,64.5 388.5,65.8333 389.5,67.5C 389.539,68.5832 389.873,69.5832 390.5,70.5C 393.196,72.2111 395.862,73.8777 398.5,75.5C 398.414,76.4959 398.748,77.3292 399.5,78C 402.065,80.0795 404.732,81.9128 407.5,83.5C 408.833,84.5 410.167,85.5 411.5,86.5C 412.597,88.7742 413.93,90.9409 415.5,93C 413.93,95.0591 412.597,97.2258 411.5,99.5C 408.646,100.973 406.312,103.14 404.5,106C 403.062,106.219 401.729,106.719 400.5,107.5C 399.797,110.34 398.797,113.007 397.5,115.5C 395.883,116.038 394.216,116.371 392.5,116.5C 392.509,118.308 392.009,119.975 391,121.5C 388.546,123.441 386.713,125.775 385.5,128.5C 385.5,129.167 385.167,129.5 384.5,129.5C 382.086,130.911 380.419,132.911 379.5,135.5C 379.167,136.5 378.5,137.167 377.5,137.5C 371.11,142.557 365.777,148.557 361.5,155.5C 355.803,159.868 351.136,165.202 347.5,171.5C 346.833,172.833 345.833,173.833 344.5,174.5C 342.738,175.262 341.738,176.596 341.5,178.5C 340.761,178.369 340.094,178.536 339.5,179C 336.833,182 334.167,185 331.5,188C 330.552,188.483 329.552,188.649 328.5,188.5C 327.689,192.297 326.022,195.631 323.5,198.5C 322.833,199.833 321.833,200.833 320.5,201.5C 314.033,208.137 307.7,214.97 301.5,222C 300.5,222.667 299.5,222.667 298.5,222C 297.627,220.955 296.627,220.122 295.5,219.5C 294.502,215.495 292.502,212.161 289.5,209.5C 288.502,205.495 286.502,202.161 283.5,199.5C 282.367,195.901 280.7,192.568 278.5,189.5C 278.167,190.167 277.833,190.833 277.5,191.5C 279.11,193.725 280.443,196.059 281.5,198.5C 279.346,197.253 277.346,196.419 275.5,196C 276.409,194.211 276.576,192.377 276,190.5C 273.356,187.539 271.522,184.206 270.5,180.5C 272.137,182.316 273.637,184.316 275,186.5C 274.845,184.189 274.845,181.856 275,179.5C 292.366,159.971 309.866,140.638 327.5,121.5C 331.499,117.67 335.665,114.003 340,110.5C 340.655,108.372 341.489,106.372 342.5,104.5C 351.421,93.4068 360.921,82.7402 371,72.5C 372.75,70.2657 374.25,67.9324 375.5,65.5C 377.186,63.9835 379.019,62.6502 381,61.5C 382.406,62.4138 383.906,63.0805 385.5,63.5 Z"/></g>
<g><path style="opacity:1" fill="#9a3124" d="M 201.5,63.5 C 205.665,69.1583 209.332,75.1583 212.5,81.5C 206.791,76.7489 203.124,70.7489 201.5,63.5 Z"/></g>
<g><path style="opacity:0.329" fill="#911613" d="M 389.5,67.5 C 393.105,69.4719 396.105,72.1385 398.5,75.5C 395.862,73.8777 393.196,72.2111 390.5,70.5C 389.873,69.5832 389.539,68.5832 389.5,67.5 Z"/></g>
<g><path style="opacity:0.867" fill="#93362c" d="M 155.5,61.5 C 155.167,62.1667 154.833,62.8333 154.5,63.5C 152.534,64.4412 150.534,65.4412 148.5,66.5C 147.386,67.723 147.219,69.0563 148,70.5C 159.276,88.0644 170.276,105.731 181,123.5C 181.49,124.793 181.657,126.127 181.5,127.5C 169.441,108.397 157.608,89.0641 146,69.5C 145.316,68.2161 145.483,67.0495 146.5,66C 149.411,64.2389 152.411,62.7389 155.5,61.5 Z"/></g>
<g><path style="opacity:0.886" fill="#8a2016" d="M 398.5,75.5 C 402.12,77.4528 405.12,80.1195 407.5,83.5C 404.732,81.9128 402.065,80.0795 399.5,78C 398.748,77.3292 398.414,76.4959 398.5,75.5 Z"/></g>
<g><path style="opacity:0.969" fill="#861e1c" d="M 411.5,86.5 C 419.255,90.7058 419.255,95.0391 411.5,99.5C 412.597,97.2258 413.93,95.0591 415.5,93C 413.93,90.9409 412.597,88.7742 411.5,86.5 Z"/></g>
<g><path style="opacity:1" fill="#983127" d="M 212.5,81.5 C 217.334,88.4957 221.667,95.829 225.5,103.5C 220.97,98.816 217.137,93.4826 214,87.5C 212.872,85.6547 212.372,83.6547 212.5,81.5 Z"/></g>
<g><path style="opacity:0.502" fill="#9d1c16" d="M 411.5,99.5 C 407.177,105.155 402.51,110.488 397.5,115.5C 398.797,113.007 399.797,110.34 400.5,107.5C 401.729,106.719 403.062,106.219 404.5,106C 406.312,103.14 408.646,100.973 411.5,99.5 Z"/></g>
<g><path style="opacity:1" fill="#972b23" d="M 225.5,103.5 C 228,106.494 230,109.827 231.5,113.5C 227.977,111.127 225.977,107.794 225.5,103.5 Z"/></g>
<g><path style="opacity:1" fill="#d80a0e" d="M 342.5,104.5 C 341.489,106.372 340.655,108.372 340,110.5C 335.665,114.003 331.499,117.67 327.5,121.5C 332.135,115.531 337.135,109.864 342.5,104.5 Z"/></g>
<g><path style="opacity:1" fill="#952821" d="M 231.5,113.5 C 234,116.494 236,119.827 237.5,123.5C 233.977,121.127 231.977,117.794 231.5,113.5 Z"/></g>
<g><path style="opacity:0.286" fill="#8f221b" d="M 397.5,115.5 C 394.208,120.46 390.208,124.793 385.5,128.5C 386.713,125.775 388.546,123.441 391,121.5C 392.009,119.975 392.509,118.308 392.5,116.5C 394.216,116.371 395.883,116.038 397.5,115.5 Z"/></g>
<g><path style="opacity:0.984" fill="#893731" d="M 237.5,123.5 C 240.502,126.161 242.502,129.495 243.5,133.5C 241,130.506 239,127.173 237.5,123.5 Z"/></g>
<g><path style="opacity:1" fill="#893129" d="M 181.5,127.5 C 183.796,128.733 185.13,130.733 185.5,133.5C 183.684,131.882 182.351,129.882 181.5,127.5 Z"/></g>
<g><path style="opacity:0.443" fill="#83221f" d="M 384.5,129.5 C 383.581,132.089 381.914,134.089 379.5,135.5C 380.419,132.911 382.086,130.911 384.5,129.5 Z"/></g>
<g><path style="opacity:1" fill="#86251b" d="M 185.5,133.5 C 188.521,136.206 190.521,139.539 191.5,143.5C 189,140.506 187,137.173 185.5,133.5 Z"/></g>
<g><path style="opacity:0.62" fill="#871c15" d="M 377.5,137.5 C 372.509,143.823 367.176,149.823 361.5,155.5C 365.777,148.557 371.11,142.557 377.5,137.5 Z"/></g>
<g><path style="opacity:1" fill="#91201b" d="M 191.5,143.5 C 195.947,147.986 199.28,153.32 201.5,159.5C 197.669,154.511 194.336,149.178 191.5,143.5 Z"/></g>
<g><path style="opacity:1" fill="#9c2118" d="M 243.5,133.5 C 250,143.161 256,153.161 261.5,163.5C 256.866,158.257 252.699,152.59 249,146.5C 248.108,143.048 246.442,140.048 244,137.5C 243.51,136.207 243.343,134.873 243.5,133.5 Z"/></g>
<g><path style="opacity:1" fill="#e6e6e6" d="M 210.5,176.5 C 210.833,176.5 211.167,176.5 211.5,176.5C 211.5,176.833 211.5,177.167 211.5,177.5C 212.475,179.795 213.808,181.795 215.5,183.5C 216.351,185.882 217.684,187.882 219.5,189.5C 221,193.173 223,196.506 225.5,199.5C 226.079,202.331 227.412,204.664 229.5,206.5C 229.427,208.027 230.094,209.027 231.5,209.5C 232.399,212.395 233.733,215.062 235.5,217.5C 231.734,218.582 227.901,218.248 224,216.5C 222.667,217.167 221.333,217.833 220,218.5C 211.31,215.855 202.476,213.689 193.5,212C 181.929,203.576 169.263,199.91 155.5,201C 157.078,203.968 157.745,207.135 157.5,210.5C 151.714,212.302 146.714,211.136 142.5,207C 137.452,204.489 132.119,202.823 126.5,202C 122.599,198.42 121.599,199.253 123.5,204.5C 122.599,211.867 120.265,218.7 116.5,225C 116.743,225.902 117.077,226.735 117.5,227.5C 107.069,221.189 95.7356,217.356 83.5,216C 75.9423,211.233 68.609,206.399 61.5,201.5C 63.0281,201.483 63.5281,200.816 63,199.5C 60.527,197.027 58.027,194.527 55.5,192C 47.1657,189.499 38.8324,186.999 30.5,184.5C 30.3862,186.718 29.7196,188.718 28.5,190.5C 26.1198,188.763 24.4531,186.43 23.5,183.5C 24.829,174.632 29.4957,171.965 37.5,175.5C 39.444,174.811 41.444,174.311 43.5,174C 47.5,170 51.5,166 55.5,162C 58.0168,161.743 60.3502,162.41 62.5,164C 66.2891,166.127 69.7891,168.627 73,171.5C 76.1556,169.014 79.3223,166.514 82.5,164C 87.5465,163.662 92.5465,162.995 97.5,162C 103.358,159.16 109.524,157.327 116,156.5C 146.844,163.436 177.678,170.436 208.5,177.5C 209.416,177.457 210.083,177.124 210.5,176.5 Z"/></g>
<g><path style="opacity:1" fill="#861e18" d="M 203.5,163.5 C 205.796,164.733 207.13,166.733 207.5,169.5C 205.684,167.882 204.351,165.882 203.5,163.5 Z"/></g>
<g><path style="opacity:0.635" fill="#8e1916" d="M 361.5,155.5 C 357.177,161.155 352.51,166.488 347.5,171.5C 351.136,165.202 355.803,159.868 361.5,155.5 Z"/></g>
<g><path style="opacity:1" fill="#a01d17" d="M 261.5,163.5 C 264.502,166.161 266.502,169.495 267.5,173.5C 263.983,171.141 261.983,167.808 261.5,163.5 Z"/></g>
<g><path style="opacity:0.98" fill="#8b2f25" d="M 375.5,65.5 C 374.25,67.9324 372.75,70.2657 371,72.5C 360.921,82.7402 351.421,93.4068 342.5,104.5C 337.135,109.864 332.135,115.531 327.5,121.5C 309.866,140.638 292.366,159.971 275,179.5C 274.845,181.856 274.845,184.189 275,186.5C 273.637,184.316 272.137,182.316 270.5,180.5C 268.182,178.815 267.182,176.481 267.5,173.5C 269.179,175 270.512,176.833 271.5,179C 272.167,179.667 272.833,179.667 273.5,179C 307.366,140.972 341.366,103.139 375.5,65.5 Z"/></g>
<g><path style="opacity:0.255" fill="#872822" d="M 207.5,169.5 C 209.669,171.34 211.002,173.674 211.5,176.5C 211.167,176.5 210.833,176.5 210.5,176.5C 209.227,174.287 208.227,171.954 207.5,169.5 Z"/></g>
<g><path style="opacity:0.224" fill="#79261f" d="M 344.5,174.5 C 344.262,176.404 343.262,177.738 341.5,178.5C 341.738,176.596 342.738,175.262 344.5,174.5 Z"/></g>
<g><path style="opacity:1" fill="#842c28" d="M 211.5,177.5 C 213.982,178.663 215.316,180.663 215.5,183.5C 213.808,181.795 212.475,179.795 211.5,177.5 Z"/></g>
<g><path style="opacity:1" fill="#d1d1d1" d="M 89.5,175.5 C 92.2165,175.678 94.8832,176.178 97.5,177C 104.947,182.113 111.78,187.947 118,194.5C 119.449,197.732 120.616,201.065 121.5,204.5C 121.167,205.167 120.833,205.833 120.5,206.5C 115.825,195.153 108.325,186.153 98,179.5C 97.8333,179.833 97.6667,180.167 97.5,180.5C 102.311,185.794 106.478,191.461 110,197.5C 111.981,201.958 113.814,206.458 115.5,211C 114.833,211.667 114.167,211.667 113.5,211C 110.564,204.052 106.064,198.218 100,193.5C 97.236,188.651 95.0693,183.651 93.5,178.5C 91.0274,178.912 89.6941,177.912 89.5,175.5 Z"/></g>
<g><path style="opacity:1" fill="#7e1b16" d="M 215.5,183.5 C 217.796,184.733 219.13,186.733 219.5,189.5C 217.684,187.882 216.351,185.882 215.5,183.5 Z"/></g>
<g><path style="opacity:0.989" fill="#cdcdcd" d="M 61.5,201.5 C 56.7847,201.494 52.118,200.994 47.5,200C 41.1059,196.803 34.7726,193.636 28.5,190.5C 29.7196,188.718 30.3862,186.718 30.5,184.5C 38.8324,186.999 47.1657,189.499 55.5,192C 58.027,194.527 60.527,197.027 63,199.5C 63.5281,200.816 63.0281,201.483 61.5,201.5 Z"/></g>
<g><path style="opacity:1" fill="#811e17" d="M 219.5,189.5 C 222.502,192.161 224.502,195.495 225.5,199.5C 223,196.506 221,193.173 219.5,189.5 Z"/></g>
<g><path style="opacity:1" fill="#a10101" d="M 283.5,199.5 C 282.833,199.167 282.167,198.833 281.5,198.5C 280.443,196.059 279.11,193.725 277.5,191.5C 277.833,190.833 278.167,190.167 278.5,189.5C 280.7,192.568 282.367,195.901 283.5,199.5 Z"/></g>
<g><path style="opacity:0.22" fill="#8d1713" d="M 341.5,178.5 C 335.842,185.491 329.842,192.157 323.5,198.5C 326.022,195.631 327.689,192.297 328.5,188.5C 329.552,188.649 330.552,188.483 331.5,188C 334.167,185 336.833,182 339.5,179C 340.094,178.536 340.761,178.369 341.5,178.5 Z"/></g>
<g><path style="opacity:0.999" fill="#cdcccc" d="M 235.5,217.5 C 236.267,218.172 236.934,219.005 237.5,220C 235.536,221.451 234.203,223.284 233.5,225.5C 227.059,230.602 221.726,236.602 217.5,243.5C 215.5,245.167 213.5,246.833 211.5,248.5C 210.942,247.21 209.942,246.377 208.5,246C 193.073,242.715 177.74,239.048 162.5,235C 147.689,231.271 132.689,228.771 117.5,227.5C 117.077,226.735 116.743,225.902 116.5,225C 120.265,218.7 122.599,211.867 123.5,204.5C 121.599,199.253 122.599,198.42 126.5,202C 132.119,202.823 137.452,204.489 142.5,207C 146.714,211.136 151.714,212.302 157.5,210.5C 157.745,207.135 157.078,203.968 155.5,201C 169.263,199.91 181.929,203.576 193.5,212C 202.476,213.689 211.31,215.855 220,218.5C 221.333,217.833 222.667,217.167 224,216.5C 227.901,218.248 231.734,218.582 235.5,217.5 Z"/></g>
<g><path style="opacity:1" fill="#771e17" d="M 225.5,199.5 C 226.728,200.306 227.728,201.306 228.5,202.5C 229.234,203.708 229.567,205.041 229.5,206.5C 227.412,204.664 226.079,202.331 225.5,199.5 Z"/></g>
<g><path style="opacity:1" fill="#be1711" d="M 228.5,202.5 C 230.24,204.772 232.073,207.105 234,209.5C 234.483,210.448 234.649,211.448 234.5,212.5C 233.728,211.306 232.728,210.306 231.5,209.5C 230.094,209.027 229.427,208.027 229.5,206.5C 229.567,205.041 229.234,203.708 228.5,202.5 Z"/></g>
<g><path style="opacity:0.149" fill="#832018" d="M 320.5,201.5 C 320.443,202.609 320.11,203.609 319.5,204.5C 313.199,210.97 307.033,217.637 301,224.5C 300.517,225.448 300.351,226.448 300.5,227.5C 298.05,225.371 296.383,222.704 295.5,219.5C 296.627,220.122 297.627,220.955 298.5,222C 299.5,222.667 300.5,222.667 301.5,222C 307.7,214.97 314.033,208.137 320.5,201.5 Z"/></g>
<g><path style="opacity:1" fill="#a50101" d="M 283.5,199.5 C 286.502,202.161 288.502,205.495 289.5,209.5C 286.505,206.856 284.505,203.523 283.5,199.5 Z"/></g>
<g><path style="opacity:1" fill="#e7e7e7" d="M 319.5,204.5 C 319.369,205.376 319.702,206.043 320.5,206.5C 356.822,219.331 393.822,229.831 431.5,238C 441.519,240.34 451.186,243.673 460.5,248C 461.631,250.522 462.297,253.189 462.5,256C 461.943,265.251 460.776,274.418 459,283.5C 458.284,285.879 457.117,287.879 455.5,289.5C 447.515,286.992 439.515,284.158 431.5,281C 414.503,278.061 397.836,274.061 381.5,269C 379.167,268.333 376.833,268.333 374.5,269C 377,269.885 379.333,271.052 381.5,272.5C 380.5,272.833 379.5,273.167 378.5,273.5C 365.1,270.538 351.767,267.038 338.5,263C 332.86,256.876 326.194,252.043 318.5,248.5C 317.472,246.639 315.972,245.305 314,244.5C 313.667,243.5 313.333,242.5 313,241.5C 312.329,242.252 311.496,242.586 310.5,242.5C 309.728,241.306 308.728,240.306 307.5,239.5C 306,235.827 304,232.494 301.5,229.5C 301.672,228.508 301.338,227.842 300.5,227.5C 300.351,226.448 300.517,225.448 301,224.5C 307.033,217.637 313.199,210.97 319.5,204.5 Z"/></g>
<g><path style="opacity:1" fill="#9d0001" d="M 289.5,209.5 C 292.502,212.161 294.502,215.495 295.5,219.5C 292.498,216.839 290.498,213.505 289.5,209.5 Z"/></g>
<g><path style="opacity:1" fill="#7f1613" d="M 231.5,209.5 C 232.728,210.306 233.728,211.306 234.5,212.5C 235.957,214.849 237.291,217.182 238.5,219.5C 238.267,221.062 237.6,222.395 236.5,223.5C 235.5,224.167 234.5,224.833 233.5,225.5C 234.203,223.284 235.536,221.451 237.5,220C 236.934,219.005 236.267,218.172 235.5,217.5C 233.733,215.062 232.399,212.395 231.5,209.5 Z"/></g>
<g><path style="opacity:1" fill="#a70507" d="M 238.5,219.5 C 240.659,222.484 242.325,225.817 243.5,229.5C 241.946,228.086 240.612,226.419 239.5,224.5C 238.675,223.614 237.675,223.281 236.5,223.5C 237.6,222.395 238.267,221.062 238.5,219.5 Z"/></g>
<g><path style="opacity:1" fill="#fa0101" d="M 236.5,223.5 C 237.675,223.281 238.675,223.614 239.5,224.5C 240.612,226.419 241.946,228.086 243.5,229.5C 245.349,233.542 247.016,237.709 248.5,242C 250.652,246.312 253.652,249.812 257.5,252.5C 260.128,256.805 261.795,261.472 262.5,266.5C 261.027,267.071 259.36,267.071 257.5,266.5C 258.5,271.5 256.5,273.5 251.5,272.5C 251.481,274.06 251.148,275.56 250.5,277C 249.616,278.098 248.616,278.598 247.5,278.5C 248.246,279.736 248.579,281.07 248.5,282.5C 248.167,283.5 247.5,284.167 246.5,284.5C 244.738,285.262 243.738,286.596 243.5,288.5C 241.442,286.004 240.276,286.67 240,290.5C 238.989,291.337 237.822,291.67 236.5,291.5C 236.5,292.833 236.5,294.167 236.5,295.5C 235.167,295.5 233.833,295.5 232.5,295.5C 231.026,297.77 229.526,300.77 228,304.5C 226.066,307.688 223.232,309.188 219.5,309C 220.605,311.12 220.605,313.287 219.5,315.5C 218.06,316.363 216.726,316.363 215.5,315.5C 213.077,320.018 210.41,324.352 207.5,328.5C 204.757,330.239 202.757,332.573 201.5,335.5C 201.167,336.5 200.5,337.167 199.5,337.5C 196.097,339.9 193.43,342.9 191.5,346.5C 191.5,346.833 191.5,347.167 191.5,347.5C 190.167,347.5 189.5,348.167 189.5,349.5C 186.5,350.5 184.5,352.5 183.5,355.5C 177.059,360.602 171.726,366.602 167.5,373.5C 167.5,374.167 167.167,374.5 166.5,374.5C 163.427,376.569 161.094,379.236 159.5,382.5C 159.5,382.833 159.5,383.167 159.5,383.5C 157.473,383.662 155.473,383.495 153.5,383C 150.899,379.888 147.899,377.388 144.5,375.5C 143.089,373.086 141.089,371.419 138.5,370.5C 138.027,369.094 137.027,368.427 135.5,368.5C 135.167,367.833 134.833,367.167 134.5,366.5C 132.1,363.097 129.1,360.43 125.5,358.5C 124.542,357.038 123.376,355.705 122,354.5C 121.333,353.5 121.333,352.5 122,351.5C 129.109,344.235 135.609,336.568 141.5,328.5C 149.167,320.5 156.833,312.5 164.5,304.5C 167.903,302.1 170.57,299.1 172.5,295.5C 185.23,281.442 197.563,267.109 209.5,252.5C 212.903,250.1 215.57,247.1 217.5,243.5C 223.198,237.803 228.532,231.803 233.5,225.5C 234.5,224.833 235.5,224.167 236.5,223.5 Z"/></g>
<g><path style="opacity:1" fill="#7c1917" d="M 233.5,225.5 C 228.532,231.803 223.198,237.803 217.5,243.5C 221.726,236.602 227.059,230.602 233.5,225.5 Z"/></g>
<g><path style="opacity:1" fill="#9e1b16" d="M 301.5,229.5 C 304,232.494 306,235.827 307.5,239.5C 306.504,239.586 305.671,239.252 305,238.5C 303.047,235.745 301.88,232.745 301.5,229.5 Z"/></g>
<g><path style="opacity:1" fill="#c40606" d="M 243.5,229.5 C 246.521,232.206 248.521,235.539 249.5,239.5C 251.592,239.561 253.092,240.561 254,242.5C 255.17,245.852 256.336,249.186 257.5,252.5C 253.652,249.812 250.652,246.312 248.5,242C 247.016,237.709 245.349,233.542 243.5,229.5 Z"/></g>
<g><path style="opacity:1" fill="#a01b17" d="M 307.5,239.5 C 308.728,240.306 309.728,241.306 310.5,242.5C 311.773,244.713 312.773,247.046 313.5,249.5C 309.983,247.141 307.983,243.808 307.5,239.5 Z"/></g>
<g><path style="opacity:1" fill="#811711" d="M 217.5,243.5 C 215.57,247.1 212.903,250.1 209.5,252.5C 209.733,250.938 210.4,249.605 211.5,248.5C 213.5,246.833 215.5,245.167 217.5,243.5 Z"/></g>
<g><path style="opacity:1" fill="#7e1e24" d="M 313.5,249.5 C 314.906,249.973 315.573,250.973 315.5,252.5C 314.094,252.027 313.427,251.027 313.5,249.5 Z"/></g>
<g><path style="opacity:1" fill="#a90507" d="M 257.5,252.5 C 260.317,254.972 262.484,257.972 264,261.5C 265.635,263.667 267.468,264.834 269.5,265C 268.941,265.725 268.608,266.558 268.5,267.5C 270.47,271.102 272.137,274.769 273.5,278.5C 270.775,274.732 268.275,270.732 266,266.5C 264.855,265.316 263.688,265.316 262.5,266.5C 261.795,261.472 260.128,256.805 257.5,252.5 Z"/></g>
<g><path style="opacity:1" fill="#761a14" d="M 319.5,259.5 C 320.906,259.973 321.573,260.973 321.5,262.5C 320.094,262.027 319.427,261.027 319.5,259.5 Z"/></g>
<g><path style="opacity:1" fill="#cfcece" d="M 455.5,289.5 C 454.054,290.94 452.221,291.607 450,291.5C 408.806,284.941 367.973,277.941 327.5,270.5C 325.5,267.833 323.5,265.167 321.5,262.5C 321.573,260.973 320.906,259.973 319.5,259.5C 318.921,256.669 317.588,254.336 315.5,252.5C 315.573,250.973 314.906,249.973 313.5,249.5C 312.773,247.046 311.773,244.713 310.5,242.5C 311.496,242.586 312.329,242.252 313,241.5C 313.333,242.5 313.667,243.5 314,244.5C 315.972,245.305 317.472,246.639 318.5,248.5C 326.194,252.043 332.86,256.876 338.5,263C 351.767,267.038 365.1,270.538 378.5,273.5C 379.5,273.167 380.5,272.833 381.5,272.5C 379.333,271.052 377,269.885 374.5,269C 376.833,268.333 379.167,268.333 381.5,269C 397.836,274.061 414.503,278.061 431.5,281C 439.515,284.158 447.515,286.992 455.5,289.5 Z"/></g>
<g><path style="opacity:1" fill="#a81d16" d="M 315.5,252.5 C 317.588,254.336 318.921,256.669 319.5,259.5C 319.427,261.027 320.094,262.027 321.5,262.5C 323.5,265.167 325.5,267.833 327.5,270.5C 327.5,270.833 327.5,271.167 327.5,271.5C 320.743,267.002 316.743,260.669 315.5,252.5 Z"/></g>
<g><path style="opacity:1" fill="#c60c0d" d="M 262.5,266.5 C 260.906,269.764 258.573,272.431 255.5,274.5C 254.094,274.973 253.427,275.973 253.5,277.5C 252.167,279.5 250.5,281.167 248.5,282.5C 248.579,281.07 248.246,279.736 247.5,278.5C 248.616,278.598 249.616,278.098 250.5,277C 251.148,275.56 251.481,274.06 251.5,272.5C 256.5,273.5 258.5,271.5 257.5,266.5C 259.36,267.071 261.027,267.071 262.5,266.5 Z"/></g>
<g><path style="opacity:1" fill="#90291d" d="M 327.5,271.5 C 328.492,273.456 329.492,275.456 330.5,277.5C 328.025,276.313 327.025,274.313 327.5,271.5 Z"/></g>
<g><path style="opacity:0.973" fill="#8a1f19" d="M 209.5,252.5 C 197.563,267.109 185.23,281.442 172.5,295.5C 171.5,296.167 170.5,296.833 169.5,297.5C 169.5,297.167 169.5,296.833 169.5,296.5C 182.492,281.508 195.826,266.842 209.5,252.5 Z"/></g>
<g><path style="opacity:0.047" fill="#721d1a" d="M 255.5,274.5 C 255.573,276.027 254.906,277.027 253.5,277.5C 253.427,275.973 254.094,274.973 255.5,274.5 Z"/></g>
<g><path style="opacity:0.51" fill="#79322a" d="M 330.5,277.5 C 331.906,277.973 332.573,278.973 332.5,280.5C 331.094,280.027 330.427,279.027 330.5,277.5 Z"/></g>
<g><path style="opacity:1" fill="#a50f0f" d="M 274.5,280.5 C 276.115,282.374 278.115,283.708 280.5,284.5C 280.448,286.903 280.781,289.236 281.5,291.5C 278.806,288.124 276.473,284.457 274.5,280.5 Z"/></g>
<g><path style="opacity:0.133" fill="#821b16" d="M 246.5,284.5 C 246.262,286.404 245.262,287.738 243.5,288.5C 243.738,286.596 244.738,285.262 246.5,284.5 Z"/></g>
<g><path style="opacity:1" fill="#9c1911" d="M 281.5,291.5 C 286.053,295.004 288.719,299.671 289.5,305.5C 286.331,301.167 283.664,296.5 281.5,291.5 Z"/></g>
<g><path style="opacity:1" fill="#bb0f0e" d="M 243.5,288.5 C 235.471,297.526 227.471,306.526 219.5,315.5C 220.605,313.287 220.605,311.12 219.5,309C 223.232,309.188 226.066,307.688 228,304.5C 229.526,300.77 231.026,297.77 232.5,295.5C 233.833,295.5 235.167,295.5 236.5,295.5C 236.5,294.167 236.5,292.833 236.5,291.5C 237.822,291.67 238.989,291.337 240,290.5C 240.276,286.67 241.442,286.004 243.5,288.5 Z"/></g>
<g><path style="opacity:0.831" fill="#904337" d="M 169.5,296.5 C 169.5,296.833 169.5,297.167 169.5,297.5C 167.42,299.573 165.754,301.907 164.5,304.5C 156.833,312.5 149.167,320.5 141.5,328.5C 150.467,317.531 159.801,306.865 169.5,296.5 Z"/></g>
<g><path style="opacity:1" fill="#c50b0e" d="M 172.5,295.5 C 170.57,299.1 167.903,302.1 164.5,304.5C 165.754,301.907 167.42,299.573 169.5,297.5C 170.5,296.833 171.5,296.167 172.5,295.5 Z"/></g>
<g><path style="opacity:0.047" fill="#871413" d="M 289.5,305.5 C 292.086,306.487 293.419,308.487 293.5,311.5C 291.684,309.882 290.351,307.882 289.5,305.5 Z"/></g>
<g><path style="opacity:1" fill="#991716" d="M 293.5,311.5 C 297.005,313.829 299.005,317.163 299.5,321.5C 297,318.506 295,315.173 293.5,311.5 Z"/></g>
<g><path style="opacity:1" fill="#9e372b" d="M 332.5,280.5 C 343.584,296.992 353.917,313.992 363.5,331.5C 361.507,329.789 359.673,327.789 358,325.5C 349.918,311.667 341.584,298 333,284.5C 332.51,283.207 332.343,281.873 332.5,280.5 Z"/></g>
<g><path style="opacity:0.988" fill="#9d1611" d="M 219.5,315.5 C 216.208,320.46 212.208,324.793 207.5,328.5C 210.41,324.352 213.077,320.018 215.5,315.5C 216.726,316.363 218.06,316.363 219.5,315.5 Z"/></g>
<g><path style="opacity:0.384" fill="#801a11" d="M 299.5,321.5 C 301.408,322.486 302.408,324.152 302.5,326.5C 300.75,325.341 299.75,323.674 299.5,321.5 Z"/></g>
<g><path style="opacity:1" fill="#ce1613" d="M 302.5,326.5 C 304.606,328.282 306.939,329.615 309.5,330.5C 309.989,335.637 311.656,340.303 314.5,344.5C 313.833,344.167 313.167,343.833 312.5,343.5C 310.75,342.341 309.75,340.674 309.5,338.5C 308.921,335.669 307.588,333.336 305.5,331.5C 303.75,330.341 302.75,328.674 302.5,326.5 Z"/></g>
<g><path style="opacity:0.184" fill="#80221a" d="M 207.5,328.5 C 206.243,331.427 204.243,333.761 201.5,335.5C 202.757,332.573 204.757,330.239 207.5,328.5 Z"/></g>
<g><path style="opacity:0.592" fill="#842a22" d="M 305.5,331.5 C 307.588,333.336 308.921,335.669 309.5,338.5C 307.412,336.664 306.079,334.331 305.5,331.5 Z"/></g>
<g><path style="opacity:1" fill="#9e3c2f" d="M 363.5,331.5 C 368.917,338.659 373.583,346.325 377.5,354.5C 375.507,352.789 373.673,350.789 372,348.5C 369.584,343.999 366.917,339.666 364,335.5C 363.51,334.207 363.343,332.873 363.5,331.5 Z"/></g>
<g><path style="opacity:0.6" fill="#861816" d="M 199.5,337.5 C 197.57,341.1 194.903,344.1 191.5,346.5C 193.43,342.9 196.097,339.9 199.5,337.5 Z"/></g>
<g><path style="opacity:0.055" fill="#824a3b" d="M 191.5,347.5 C 191.167,348.5 190.5,349.167 189.5,349.5C 189.5,348.167 190.167,347.5 191.5,347.5 Z"/></g>
<g><path style="opacity:0.408" fill="#7e1813" d="M 189.5,349.5 C 187.833,351.833 185.833,353.833 183.5,355.5C 184.5,352.5 186.5,350.5 189.5,349.5 Z"/></g>
<g><path style="opacity:1" fill="#892822" d="M 312.5,343.5 C 313.167,343.833 313.833,344.167 314.5,344.5C 318.185,351.178 321.852,357.845 325.5,364.5C 320.418,358.011 316.085,351.011 312.5,343.5 Z"/></g>
<g><path style="opacity:1" fill="#8a2e26" d="M 141.5,328.5 C 135.609,336.568 129.109,344.235 122,351.5C 121.333,352.5 121.333,353.5 122,354.5C 123.376,355.705 124.542,357.038 125.5,358.5C 120.975,357.213 119.475,354.546 121,350.5C 127.618,342.902 134.451,335.569 141.5,328.5 Z"/></g>
<g><path style="opacity:1" fill="#8a1c18" d="M 125.5,358.5 C 129.1,360.43 132.1,363.097 134.5,366.5C 130.9,364.57 127.9,361.903 125.5,358.5 Z"/></g>
<g><path style="opacity:0.824" fill="#8f1a15" d="M 183.5,355.5 C 178.634,361.885 173.301,367.885 167.5,373.5C 171.726,366.602 177.059,360.602 183.5,355.5 Z"/></g>
<g><path style="opacity:0.682" fill="#83433b" d="M 135.5,368.5 C 137.027,368.427 138.027,369.094 138.5,370.5C 136.973,370.573 135.973,369.906 135.5,368.5 Z"/></g>
<g><path style="opacity:1" fill="#892921" d="M 138.5,370.5 C 141.089,371.419 143.089,373.086 144.5,375.5C 141.911,374.581 139.911,372.914 138.5,370.5 Z"/></g>
<g><path style="opacity:1" fill="#8f201e" d="M 144.5,375.5 C 147.899,377.388 150.899,379.888 153.5,383C 155.473,383.495 157.473,383.662 159.5,383.5C 158.312,384.364 157.145,385.364 156,386.5C 151.665,383.331 147.832,379.664 144.5,375.5 Z"/></g>
<g><path style="opacity:0.325" fill="#831f14" d="M 166.5,374.5 C 164.906,377.764 162.573,380.431 159.5,382.5C 161.094,379.236 163.427,376.569 166.5,374.5 Z"/></g>
<g><path style="opacity:1" fill="#98362c" d="M 377.5,354.5 C 384.809,365.1 391.643,376.1 398,387.5C 398.72,389.112 398.554,390.612 397.5,392C 394.757,394.038 391.757,395.538 388.5,396.5C 390.998,394.173 393.664,392.007 396.5,390C 390.748,379.25 384.581,368.75 378,358.5C 377.51,357.207 377.343,355.873 377.5,354.5 Z"/></g>
<g><path style="opacity:0.737" fill="#892d24" d="M 325.5,364.5 C 335.835,380.194 345.835,396.194 355.5,412.5C 356.723,413.614 358.056,413.781 359.5,413C 362.243,410.962 365.243,409.462 368.5,408.5C 364.995,411.514 361.162,414.181 357,416.5C 345.453,399.789 334.953,382.456 325.5,364.5 Z"/></g>
<g><path style="opacity:0.725" fill="#822926" d="M 388.5,396.5 C 387.341,398.25 385.674,399.25 383.5,399.5C 384.659,397.75 386.326,396.75 388.5,396.5 Z"/></g>
<g><path style="opacity:0.725" fill="#822723" d="M 383.5,399.5 C 382.341,401.25 380.674,402.25 378.5,402.5C 379.659,400.75 381.326,399.75 383.5,399.5 Z"/></g>
<g><path style="opacity:0.302" fill="#812a22" d="M 378.5,402.5 C 375.839,405.502 372.505,407.502 368.5,408.5C 371.31,405.704 374.643,403.704 378.5,402.5 Z"/></g>
</svg>
